<svg xmlns="http://www.w3.org/2000/svg" width="32" height="32" viewBox="0 0 32 32">
    <g fill="none" fill-rule="evenodd">
        <path d="M2 2H30V30H2z"/>
        <circle cx="16" cy="16" r="16" fill="#C9CAD5"/>
        <g stroke="#FFF" stroke-width="1.5">
            <g>
                <g>
                    <path stroke-linecap="round" stroke-linejoin="round" d="M12 .631v7.002c-2.688-.93-4.69-.807-6.008.367C4.61 6.778 2.613 6.656 0 7.633V.631c2.622-.96 4.62-.824 5.992.41C7.36-.184 9.364-.32 12 .63z" transform="translate(7 7) translate(2.5 3.5) translate(.572)"/>
                    <path stroke-linecap="square" d="M5.928 1.5L5.928 7.5" transform="translate(7 7) translate(2.5 3.5) translate(.572)"/>
                </g>
                <path stroke-linecap="round" stroke-linejoin="round" d="M.572 11.067c2.222-.92 4.222-.673 6 .742 1.712-1.447 3.712-1.694 6-.742" transform="translate(7 7) translate(2.5 3.5)"/>
            </g>
        </g>
    </g>
</svg>
