<svg xmlns="http://www.w3.org/2000/svg" width="24" height="24" viewBox="0 0 24 24">
    <g fill="none" fill-rule="evenodd">
        <g>
            <g>
                <path fill="#FFF" fill-opacity="0" d="M0 0H24V24H0z" transform="translate(-700 -467) translate(700 467)"/>
                <g stroke="#373749" stroke-width="1.5">
                    <path stroke-linejoin="round" d="M0.643 2.25H17.357V17.679000000000002H0.643z" transform="translate(-700 -467) translate(700 467) translate(3 2.5)"/>
                    <g stroke-linecap="round">
                        <path d="M0 .5L1 .5M4 .5L5 .5M8 .5L9 .5M0 3.5L1 3.5M4 3.5L5 3.5M8 3.5L9 3.5" transform="translate(-700 -467) translate(700 467) translate(3 2.5) translate(4.5 10)"/>
                    </g>
                    <path stroke-linejoin="round" d="M2.143 2.25h13.714c.829 0 1.5.672 1.5 1.5v3.643h0H.643V3.75c0-.828.671-1.5 1.5-1.5z" transform="translate(-700 -467) translate(700 467) translate(3 2.5)"/>
                    <path stroke-linecap="round" d="M5.786.321L5.786 4.179M12.214.321L12.214 4.179" transform="translate(-700 -467) translate(700 467) translate(3 2.5)"/>
                </g>
            </g>
        </g>
    </g>
</svg>
