<svg xmlns="http://www.w3.org/2000/svg" width="24" height="24" viewBox="0 0 24 24">
    <g fill="none" fill-rule="evenodd">
        <g>
            <g>
                <path fill="#FFF" fill-opacity="0" d="M0 0H24V24H0z" transform="translate(-700 -423) translate(700 423)"/>
                <g stroke-width="1.5">
                    <path fill="#0F0F15" stroke="#0F0F15" stroke-linejoin="round" d="M.643 8h16.714v8c0 .828-.671 1.5-1.5 1.5H2.143c-.829 0-1.5-.672-1.5-1.5V8h0z" transform="translate(-700 -423) translate(700 423) translate(3 2.5)"/>
                    <path stroke="#FFF" stroke-linecap="round" d="M4.5 10.5L5.5 10.5M8.5 10.5L9.5 10.5M12.5 10.5L13.5 10.5M4.5 13.5L5.5 13.5M8.5 13.5L9.5 13.5M12.5 13.5L13.5 13.5" transform="translate(-700 -423) translate(700 423) translate(3 2.5)"/>
                    <path fill="#0F0F15" stroke="#0F0F15" stroke-linejoin="round" d="M2.143 2.25h13.714c.829 0 1.5.672 1.5 1.5v1.5h0H.643v-1.5c0-.828.671-1.5 1.5-1.5z" transform="translate(-700 -423) translate(700 423) translate(3 2.5)"/>
                    <path stroke="#0F0F15" stroke-linecap="round" d="M5.786.321L5.786 4.179M12.214.321L12.214 4.179" transform="translate(-700 -423) translate(700 423) translate(3 2.5)"/>
                </g>
            </g>
        </g>
    </g>
</svg>
