<svg xmlns="http://www.w3.org/2000/svg" width="80" height="80" viewBox="0 0 80 80">
    <g fill="none" fill-rule="evenodd">
        <g>
            <g>
                <g transform="translate(-820 -356) translate(560 134) translate(260 222)">
                    <path d="M0 0H80V80H0z"/>
                    <rect width="46" height="29" x="17" y="11" stroke="#C9CAD5" stroke-linecap="round" stroke-linejoin="round" stroke-width="1.5" rx="2"/>
                    <path fill="#F4F5F6" stroke="#C9CAD5" stroke-linecap="round" stroke-linejoin="round" stroke-width="1.5" d="M17 36h46v2c0 1.105-.895 2-2 2H19c-1.105 0-2-.895-2-2v-2h0zM24 32H32V36H24zM7 49H37V53H7z"/>
                    <path stroke="#C9CAD5" stroke-linecap="round" stroke-linejoin="round" stroke-width="1.5" d="M10 70L10 53 34 53 34 70"/>
                    <path stroke="#C9CAD5" stroke-linecap="round" stroke-linejoin="round" stroke-width="1.5" d="M19 70L19 53 25 53 25 70"/>
                    <path fill="#F4F5F6" stroke="#C9CAD5" stroke-linecap="round" stroke-linejoin="round" stroke-width="1.5" d="M16 47H28V53H16zM16 57H28V61H16zM43 49H73V53H43z"/>
                    <path stroke="#C9CAD5" stroke-linecap="round" stroke-linejoin="round" stroke-width="1.5" d="M46 70L46 53 70 53 70 70"/>
                    <path stroke="#C9CAD5" stroke-linecap="round" stroke-linejoin="round" stroke-width="1.5" d="M55 70L55 53 61 53 61 70"/>
                    <path fill="#F4F5F6" stroke="#C9CAD5" stroke-linecap="round" stroke-linejoin="round" stroke-width="1.5" d="M52 47H64V53H52zM52 57H64V61H52z"/>
                </g>
            </g>
        </g>
    </g>
</svg>
