<svg xmlns="http://www.w3.org/2000/svg" width="24" height="24" viewBox="0 0 24 24">
    <g fill="none" fill-rule="evenodd">
        <g>
            <g>
                <path fill="#FFF" fill-opacity="0" d="M0 0H24V24H0z" transform="translate(-788 -467) translate(788 467)"/>
                <g stroke="#57576D" stroke-linecap="round" stroke-linejoin="round" stroke-width="1.5">
                    <path d="M3 0c1.657 0 3 1.343 3 3v5c0 1.657-1.343 3-3 3S0 9.657 0 8V4h0" transform="translate(-788 -467) translate(788 467) rotate(45 5.086 21.864) rotate(-180 3 5.5)"/>
                    <path d="M3 8.5c1.657 0 3 1.343 3 3v5c0 1.657-1.343 3-3 3s-3-1.343-3-3v-4h0" transform="translate(-788 -467) translate(788 467) rotate(45 5.086 21.864)"/>
                </g>
            </g>
        </g>
    </g>
</svg>
