<svg xmlns="http://www.w3.org/2000/svg" width="50" height="50" viewBox="0 0 50 50">
    <g fill="none" fill-rule="evenodd">
        <circle cx="25" cy="25" r="25" fill="#629F00"/>
        <g>
            <path d="M0 0H32V32H0z" transform="translate(9 9)"/>
            <g fill="#FFF" transform="translate(9 9) translate(2 9)">
                <circle cx="7" cy="3.5" r="3.5"/>
                <path d="M14 14.583c0-3.221-3.134-5.833-7-5.833s-7 2.612-7 5.833h14z"/>
            </g>
            <path stroke="#FFF" stroke-linecap="round" stroke-linejoin="round" stroke-width="3" d="M19 12L29 12M27 9.5L29 11.999 27 14.5M19 20L29 20" transform="translate(9 9)"/>
            <path stroke="#FFF" stroke-linecap="round" stroke-linejoin="round" stroke-width="3" d="M19 17.5L21 19.999 19 22.5" transform="translate(9 9) matrix(-1 0 0 1 40 0)"/>
        </g>
    </g>
</svg>
