<svg xmlns="http://www.w3.org/2000/svg" width="50" height="50" viewBox="0 0 50 50">
    <g fill="none" fill-rule="evenodd">
        <circle cx="25" cy="25" r="25" fill="#1D1D4C"/>
        <g>
            <path d="M0 0H32V32H0z" transform="translate(9 9)"/>
            <g stroke="#FFF" stroke-linecap="round" stroke-linejoin="round" stroke-width="3">
                <path d="M5 12c2.761 0 5 2.239 5 5v7c0 2.761-2.239 5-5 5s-5-2.239-5-5v-4.02h0" transform="translate(9 9) rotate(45 8.703 28.522)"/>
                <path d="M5 17c-2.761 0-5-2.239-5-5V5c0-2.761 2.239-5 5-5s5 2.239 5 5v4.02h0" transform="translate(9 9) rotate(45 8.703 28.522)"/>
            </g>
        </g>
    </g>
</svg>
