<svg xmlns="http://www.w3.org/2000/svg" width="50" height="50" viewBox="0 0 50 50">
    <g fill="none" fill-rule="evenodd">
        <g>
            <g>
                <g>
                    <g transform="translate(-490 -63) translate(450 33) translate(40 30)">
                        <circle cx="25" cy="25" r="25" fill="#1D1D4C"/>
                        <g>
                            <path d="M0 0H32V32H0z" transform="translate(9 9)"/>
                            <g fill="#FFF">
                                <path d="M18.764 0c.757 0 1.45.428 1.789 1.106L24.5 9v12c0 1.105-.895 2-2 2h-20c-1.105 0-2-.895-2-2V9l3.947-7.894C4.786.428 5.48 0 6.237 0h12.527zm-.768 12.735c-.51-.654-1.452-.771-2.105-.262l-4.72 3.674-1.91-1.96-.112-.104c-.583-.488-1.452-.465-2.008.077-.594.578-.606 1.528-.028 2.121l2.847 2.922.11.103c.537.45 1.323.472 1.886.034l5.778-4.5.116-.1c.55-.526.623-1.393.146-2.005zM15.5 2.813h-6l-.144.006C8.595 2.892 8 3.533 8 4.313c0 .828.672 1.5 1.5 1.5h6l.144-.007C16.405 5.733 17 5.092 17 4.312c0-.828-.672-1.5-1.5-1.5z" transform="translate(9 9) translate(3.5 4.5)"/>
                            </g>
                        </g>
                    </g>
                </g>
            </g>
        </g>
    </g>
</svg>
