<svg xmlns="http://www.w3.org/2000/svg" width="24" height="24" viewBox="0 0 24 24">
    <g fill="none" fill-rule="evenodd">
        <g>
            <g>
                <path d="M0 0H24V24H0z" transform="translate(-436 -511) translate(436 511)"/>
                <g stroke="#57576D" stroke-width="1.5">
                    <path stroke-linejoin="round" d="M3.857 4.371c3.429 0 6.857-1.285 10.286-3.857v14.143c-4.06-2.637-7.488-3.923-10.286-3.857V4.371z" transform="translate(-436 -511) translate(436 511) translate(3 3)"/>
                    <path stroke-linejoin="round" d="M4.19 10.798c.77.011 1.586.121 2.447.33l1.077 6.1H4.992L3.857 10.8zM1.5 4.371h2.357V10.8H1.5c-.828 0-1.5-.672-1.5-1.5V5.871c0-.828.672-1.5 1.5-1.5z" transform="translate(-436 -511) translate(436 511) translate(3 3)"/>
                    <path stroke-linecap="square" d="M14.143 10.8c1.775 0 3.214-1.44 3.214-3.214 0-1.775-1.439-3.215-3.214-3.215V10.8z" transform="translate(-436 -511) translate(436 511) translate(3 3)"/>
                </g>
            </g>
        </g>
    </g>
</svg>
