<svg xmlns="http://www.w3.org/2000/svg" width="32" height="32" viewBox="0 0 32 32">
    <g fill="none" fill-rule="evenodd">
        <path d="M2 2H30V30H2z"/>
        <circle cx="16" cy="16" r="16" fill="#C9CAD5"/>
        <g>
            <path fill="#FFF" fill-opacity="0" d="M0 0H18V18H0z" transform="translate(7 7)"/>
            <g stroke="#FFF" stroke-width="1.5">
                <path stroke-linejoin="round" d="M0.5 1.75H13.5V13.75H0.5z" transform="translate(7 7) translate(2 2)"/>
                <path stroke-linejoin="round" d="M2 1.75h10c.828 0 1.5.672 1.5 1.5v2.5h0-13v-2.5c0-.828.672-1.5 1.5-1.5z" transform="translate(7 7) translate(2 2)"/>
                <path stroke-linecap="round" stroke-linejoin="round" d="M5 9.445L6.466 10.75 9 8.75" transform="translate(7 7) translate(2 2)"/>
                <path stroke-linecap="round" d="M4.5.25L4.5 3.25M9.5.25L9.5 3.25" transform="translate(7 7) translate(2 2)"/>
            </g>
        </g>
    </g>
</svg>
