<svg xmlns="http://www.w3.org/2000/svg" width="24" height="24" viewBox="0 0 24 24">
    <g fill="none" fill-rule="evenodd">
        <g>
            <g>
                <path fill="#FFF" fill-opacity="0" d="M0 0H24V24H0z" transform="translate(-480 -467) translate(480 467)"/>
                <g stroke="#57576D" stroke-width="1.5">
                    <path stroke-linejoin="round" d="M0.643 2.25H17.357V17.679000000000002H0.643z" transform="translate(-480 -467) translate(480 467) translate(3 2.5)"/>
                    <path stroke-linejoin="round" d="M2.143 2.25h13.714c.829 0 1.5.672 1.5 1.5v3.643h0H.643V3.75c0-.828.671-1.5 1.5-1.5z" transform="translate(-480 -467) translate(480 467) translate(3 2.5)"/>
                    <path stroke-linecap="round" stroke-linejoin="round" d="M6.429 12.144L8.314 13.821 11.571 11.25" transform="translate(-480 -467) translate(480 467) translate(3 2.5)"/>
                    <path stroke-linecap="round" d="M5.786.321L5.786 4.179M12.214.321L12.214 4.179" transform="translate(-480 -467) translate(480 467) translate(3 2.5)"/>
                </g>
            </g>
        </g>
    </g>
</svg>
