<svg xmlns="http://www.w3.org/2000/svg" width="24" height="24" viewBox="0 0 24 24">
    <g fill="none" fill-rule="evenodd">
        <g>
            <g>
                <path fill="#FFF" fill-opacity="0" d="M0 0H24V24H0z" transform="translate(-612 -423) translate(612 423)"/>
                <g fill="#0F0F15" stroke="#0F0F15" stroke-linecap="round" stroke-linejoin="round" stroke-width="1.5">
                    <path d="M10.227 0l.148 1.764c1.012.192 1.95.59 2.77 1.149l1.351-1.145 1.736 1.736-1.145 1.35c.56.82.957 1.76 1.149 2.771L18 7.773v2.454l-1.764.148c-.192 1.012-.59 1.95-1.149 2.77l1.145 1.351-1.736 1.736-1.35-1.145c-.82.56-1.76.957-2.771 1.149L10.227 18H7.773l-.148-1.764c-1.012-.192-1.95-.59-2.77-1.149l-1.351 1.145-1.736-1.736 1.145-1.35c-.56-.82-.957-1.76-1.149-2.771L0 10.227V7.773l1.764-.148c.192-1.012.59-1.95 1.149-2.77L1.768 3.504l1.736-1.736 1.35 1.145c.82-.56 1.76-.957 2.771-1.149L7.773 0h2.454zM9 5C6.79 5 5 6.79 5 9s1.79 4 4 4 4-1.79 4-4-1.79-4-4-4z" transform="translate(-612 -423) translate(612 423) translate(3 3)"/>
                </g>
            </g>
        </g>
    </g>
</svg>
