<svg xmlns="http://www.w3.org/2000/svg" width="24" height="24" viewBox="0 0 24 24">
    <g fill="none" fill-rule="evenodd">
        <g>
            <g>
                <path fill="#FFF" fill-opacity="0" d="M0 0H24V24H0z" transform="translate(-480 -423) translate(480 423)"/>
                <g stroke-width="1.5">
                    <path fill="#0F0F15" stroke="#0F0F15" stroke-linejoin="round" d="M.643 8.679h16.714v7.5c0 .828-.671 1.5-1.5 1.5H2.143c-.829 0-1.5-.672-1.5-1.5v-7.5h0zM2.143 2.25h13.714c.829 0 1.5.672 1.5 1.5v2h0H.643v-2c0-.828.671-1.5 1.5-1.5z" transform="translate(-480 -423) translate(480 423) translate(3 2.5)"/>
                    <path stroke="#FFF" stroke-linecap="round" stroke-linejoin="round" d="M6.429 12.144L8.314 13.821 11.571 11.25" transform="translate(-480 -423) translate(480 423) translate(3 2.5)"/>
                    <path stroke="#0F0F15" stroke-linecap="round" d="M5.786.321L5.786 4.179M12.214.321L12.214 4.179" transform="translate(-480 -423) translate(480 423) translate(3 2.5)"/>
                </g>
            </g>
        </g>
    </g>
</svg>
