<svg xmlns="http://www.w3.org/2000/svg" width="24" height="24" viewBox="0 0 24 24">
    <g fill="none" fill-rule="evenodd">
        <g>
            <g>
                <path fill="#FFF" fill-opacity="0" d="M0 0H24V24H0z" transform="translate(-788 -423) translate(788 423)"/>
                <g stroke="#57576D" stroke-width="1.5">
                    <path stroke-linecap="square" d="M6 13V3c0-1.657-1.343-3-3-3S0 1.343 0 3v10" transform="translate(-788 -423) translate(788 423) rotate(45 4.879 20.657)"/>
                    <path stroke-linecap="round" d="M8.5 19v-8.5C8.5 8.015 6.597 6 4.25 6S0 8.015 0 10.5V19" transform="translate(-788 -423) translate(788 423) rotate(45 4.879 20.657) matrix(1 0 0 -1 0 25)"/>
                    <path stroke-linecap="round" d="M6 12.118V7.412C6 6.632 5.328 6 4.5 6S3 6.632 3 7.412V15" transform="translate(-788 -423) translate(788 423) rotate(45 4.879 20.657) matrix(1 0 0 -1 0 21)"/>
                </g>
            </g>
        </g>
    </g>
</svg>
