<svg xmlns="http://www.w3.org/2000/svg" width="24" height="24" viewBox="0 0 24 24">
    <g fill="none" fill-rule="evenodd">
        <g>
            <g>
                <path fill="#FFF" fill-opacity="0" d="M0 0H24V24H0z" transform="translate(-480 -511) translate(480 511)"/>
                <g stroke="#373749" stroke-linecap="round" stroke-linejoin="round" stroke-width="1.5">
                    <path stroke-dasharray="0 3.5" d="M9 18c4.97 0 9-4.03 9-9s-4.03-9-9-9-9 4.03-9 9 4.03 9 9 9z" transform="translate(-480 -511) translate(480 511) translate(3 3)"/>
                    <path d="M12.38 17.725c3.44-1.264 5.895-4.57 5.895-8.45 0-4.97-4.03-9-9-9s-9 4.03-9 9" transform="translate(-480 -511) translate(480 511) translate(3 3) rotate(90 9.275 9)"/>
                    <path d="M13 10L9 10 9 5" transform="translate(-480 -511) translate(480 511) translate(3 3)"/>
                </g>
            </g>
        </g>
    </g>
</svg>
