<svg xmlns="http://www.w3.org/2000/svg" width="32" height="32" viewBox="0 0 32 32">
    <g fill="none" fill-rule="evenodd">
        <g>
            <g>
                <path d="M0 0H32V32H0z" transform="translate(-1136 -14) translate(1136 14)"/>
                <g stroke="#FFF" stroke-width="1.5">
                    <path stroke-linejoin="round" d="M9 0c3.866 0 7 3.134 7 7h0v5.571L18 16H0l2-3.429V7l.004-.24C2.131 3.004 5.214 0 9 0z" transform="translate(-1136 -14) translate(1136 14) translate(7 6)"/>
                    <path d="M9 19c1.657 0 3-1.343 3-3H6c0 1.657 1.343 3 3 3z" transform="translate(-1136 -14) translate(1136 14) translate(7 6)"/>
                </g>
            </g>
        </g>
    </g>
</svg>
