<svg xmlns="http://www.w3.org/2000/svg" width="50" height="50" viewBox="0 0 50 50">
    <g fill="none" fill-rule="evenodd">
        <circle cx="25" cy="25" r="25" fill="#1D1D4C"/>
        <g>
            <path d="M0 0H32V32H0z" transform="translate(9 9)"/>
            <path fill="#FFF" d="M16 3c7.18 0 13 5.82 13 13s-5.82 13-13 13S3 23.18 3 16 8.82 3 16 3zm0 5.5c-.828 0-1.5.672-1.5 1.5v7.5l.007.144C14.58 18.405 15.22 19 16 19h5l.144-.007c.761-.073 1.356-.713 1.356-1.493l-.007-.144C22.42 16.595 21.78 16 21 16h-3.5v-6l-.007-.144C17.42 9.095 16.78 8.5 16 8.5z" transform="translate(9 9)"/>
        </g>
    </g>
</svg>
