<svg xmlns="http://www.w3.org/2000/svg" width="32" height="32" viewBox="0 0 32 32">
    <g fill="none" fill-rule="evenodd">
        <path d="M0 0H32V32H0z"/>
        <g stroke="#0F0F15" stroke-linejoin="round" stroke-width="1.5" transform="translate(6 6)">
            <path d="M11.364 0l.179 2.149c1.063.207 2.05.625 2.917 1.209l1.647-1.393 1.928 1.928-1.393 1.647c.584.867 1.002 1.854 1.21 2.917l2.148.18v2.727l-2.149.179c-.207 1.063-.625 2.05-1.209 2.917l1.393 1.647-1.928 1.928-1.647-1.393c-.867.584-1.854 1.002-2.917 1.21L11.363 20H8.637l-.179-2.149c-1.063-.207-2.05-.625-2.917-1.209l-1.647 1.393-1.928-1.928 1.393-1.647c-.584-.867-1.002-1.854-1.21-2.917L0 11.363V8.637l2.149-.179c.207-1.063.625-2.05 1.209-2.917L1.965 3.893l1.928-1.928L5.54 3.358c.867-.584 1.854-1.002 2.917-1.21L8.637 0h2.727z"/>
            <circle cx="10" cy="10" r="3"/>
        </g>
    </g>
</svg>
